<svg xmlns="http://www.w3.org/2000/svg" viewBox="0 0 100 100" width="100" height="100">
  <!-- Background circle with gradient -->
  <defs>
    <linearGradient id="gradient" x1="0%" y1="0%" x2="100%" y2="100%">
      <stop offset="0%" stop-color="#009245" />
      <stop offset="50%" stop-color="#FCEE21" />
      <stop offset="100%" stop-color="#ED1C24" />
    </linearGradient>
  </defs>
  <circle cx="50" cy="50" r="45" fill="url(#gradient)" />
  
  <!-- Stylized "G" for GelagleAI -->
  <path d="M60,30 C70,35 75,45 70,60 C65,75 50,80 35,70 C25,63 25,50 30,40 L45,40 L45,50 L35,50 C35,55 40,60 45,60 C55,60 55,50 55,45 L40,45 L40,30 L60,30 Z" fill="white" />
  
  <!-- AI element -->
  <rect x="65" y="35" width="5" height="30" fill="white" />
  <rect x="75" y="35" width="5" height="30" fill="white" />
  <rect x="65" y="35" width="15" height="5" fill="white" />
  <rect x="65" y="50" width="15" height="5" fill="white" />
</svg>
